<?xml version="1.0" encoding="utf-8"?>
<!-- Generator: Adobe Illustrator 25.4.1, SVG Export Plug-In . SVG Version: 6.00 Build 0)  -->
<svg version="1.1" id="Layer_1" xmlns="http://www.w3.org/2000/svg" xmlns:xlink="http://www.w3.org/1999/xlink" x="0px" y="0px"
	 viewBox="0 0 2684.8 2047.3" style="enable-background:new 0 0 2684.8 2047.3;" xml:space="preserve">
<style type="text/css">
	.st0{fill:#D7DF23;stroke:#D7DF23;stroke-width:30;stroke-miterlimit:10;}
	.st1{fill:#FF9D8A;}
	.st2{fill:none;stroke:#ED1C24;stroke-width:5;stroke-miterlimit:10;}
	.st3{fill:#F7941D;stroke:#FBB040;stroke-width:5;stroke-miterlimit:10;}
	.st4{fill:#754C29;stroke:#FBB040;stroke-width:5;stroke-miterlimit:10;}
	.st5{fill:#F7941D;}
	.st6{fill:none;stroke:#8B5E3C;stroke-width:30;stroke-miterlimit:10;}
	.st7{fill:#00A651;stroke:#00A651;stroke-width:30;stroke-miterlimit:10;}
	.st8{fill:#1C75BC;stroke:#231F20;stroke-width:30;stroke-miterlimit:10;}
	.st9{fill:none;stroke:#231F20;stroke-width:30;stroke-miterlimit:10;}
	.st10{fill:#939598;}
	.st11{fill:none;stroke:#231F20;stroke-width:10;stroke-miterlimit:10;}
	.st12{fill:#53DDF4;}
	.st13{fill:#020202;}
	.st14{opacity:0;fill:none;stroke:#0034E9;stroke-width:20;stroke-miterlimit:10;}
	.st15{fill:none;}
	.st16{fill:none;stroke:#231F20;stroke-width:8;stroke-miterlimit:10;}
	.st17{fill:none;stroke:#231F20;stroke-width:20;stroke-miterlimit:10;}
	.st18{opacity:0.8;}
	.st19{fill:#6D6E71;stroke:#808285;stroke-width:20;stroke-miterlimit:10;}
	.st20{fill:#3E3E3E;}
	.st21{fill:#FFFFFF;}
	.st22{fill:#FFEB35;}
</style>
<g id="Background">
	<rect x="22.3" y="15" class="st0" width="2649.1" height="792.5"/>
	<g id="floor">
		<rect id="floor_background" x="3.8" y="822.7" class="st1" width="2680.9" height="1228.4"/>
		<g id="floor_lines_2">
			<g>
				<g>
					<line class="st2" x1="2123.7" y1="827.5" x2="953.4" y2="2054.3"/>
					<line class="st2" x1="1922.8" y1="823.5" x2="752.4" y2="2050.3"/>
					<line class="st2" x1="1711" y1="824.7" x2="540.6" y2="2051.5"/>
					<line class="st2" x1="1510.1" y1="820.7" x2="339.7" y2="2047.4"/>
				</g>
				<g>
					<line class="st2" x1="2671.4" y1="1093.4" x2="1739.5" y2="2070.3"/>
					<line class="st2" x1="2671.4" y1="878.8" x2="1538.6" y2="2066.2"/>
					<line class="st2" x1="2517.3" y1="819.5" x2="1326.7" y2="2067.5"/>
					<line class="st2" x1="2312.2" y1="819.9" x2="1141.8" y2="2046.7"/>
				</g>
			</g>
			<g>
				<line class="st2" x1="2671.4" y1="1953.8" x2="2557" y2="2073.7"/>
				<line class="st2" x1="2671.4" y1="1739.2" x2="2356.1" y2="2069.7"/>
				<line class="st2" x1="2671.4" y1="1518.4" x2="2144.3" y2="2070.9"/>
				<line class="st2" x1="2683" y1="1291.6" x2="1943.4" y2="2066.9"/>
			</g>
			<g>
				<line class="st2" x1="1283.5" y1="828.1" x2="113.1" y2="2054.9"/>
				<line class="st2" x1="1082.6" y1="824.1" x2="3.8" y2="1954.8"/>
				<line class="st2" x1="870.8" y1="825.3" x2="4.2" y2="1733.6"/>
				<line class="st2" x1="669.8" y1="821.3" x2="3.8" y2="1519.3"/>
			</g>
			<g>
				<line class="st2" x1="476.9" y1="816.1" x2="1.8" y2="1314.1"/>
				<line class="st2" x1="265.9" y1="822.7" x2="3.8" y2="1097.3"/>
				<line class="st2" x1="55.2" y1="822.7" x2="3.8" y2="876.5"/>
			</g>
		</g>
		<g id="floor_lines_1">
			<g>
				<line class="st2" x1="11.5" y1="1184.7" x2="838" y2="2051.1"/>
				<line class="st2" x1="7.6" y1="1395.3" x2="639.5" y2="2057.6"/>
				<line class="st2" x1="8.8" y1="1617.3" x2="427.9" y2="2056.7"/>
				<line class="st2" x1="4.9" y1="1827.9" x2="218.3" y2="2051.6"/>
			</g>
			<g>
				<line class="st2" x1="458.9" y1="815.5" x2="1637.7" y2="2051.1"/>
				<line class="st2" x1="261.8" y1="821.7" x2="1434.6" y2="2051.1"/>
				<line class="st2" x1="52" y1="822.7" x2="1223.9" y2="2051.1"/>
				<line class="st2" x1="3.8" y1="986.8" x2="1019.2" y2="2051.1"/>
			</g>
			<g>
				<line class="st2" x1="1283.4" y1="820.3" x2="2462.1" y2="2055.8"/>
				<line class="st2" x1="1086.2" y1="826.5" x2="2259.1" y2="2055.8"/>
				<line class="st2" x1="876.5" y1="827.4" x2="2048.4" y2="2055.8"/>
				<line class="st2" x1="667.8" y1="823.4" x2="1843.6" y2="2055.8"/>
			</g>
			<g>
				<line class="st2" x1="2104.2" y1="815.5" x2="2671.4" y2="1410.1"/>
				<line class="st2" x1="1907.1" y1="821.7" x2="2671.4" y2="1622.9"/>
				<line class="st2" x1="1697.3" y1="822.7" x2="2671.4" y2="1843.7"/>
				<line class="st2" x1="1488.7" y1="818.6" x2="2664.5" y2="2051.1"/>
			</g>
			<g>
				<line class="st2" x1="2521.4" y1="825.8" x2="2671.4" y2="983"/>
				<line class="st2" x1="2312.8" y1="821.7" x2="2671.4" y2="1197.6"/>
			</g>
		</g>
	</g>
	<g>
		<g>
			<path class="st3" d="M2267.3,1239.5c443.1,0,116.6-544.6,116.6-544.6"/>
			<path class="st3" d="M2311.6,1239.5c-561,0-147.6-544.6-147.6-544.6"/>
		</g>
		<ellipse class="st4" cx="2267.3" cy="694.9" rx="123.8" ry="25.7"/>
		<polyline class="st5" points="2163.9,694.9 2164.4,1151.6 2377.5,1151.6 2411.5,752 2383.5,720.6 		"/>
	</g>
	<line class="st6" x1="2267.3" y1="693.9" x2="2267.3" y2="442.4"/>
	<path class="st7" d="M2542.9,360.2C2193.4,290.8,2293.5,471,2293.5,471"/>
	<path class="st7" d="M1954.5,360.2C2355,290.8,2240.3,471,2240.3,471"/>
	<rect x="511.5" y="125.3" class="st8" width="513.6" height="513.6"/>
	<line class="st9" x1="768.3" y1="125.3" x2="768.3" y2="638.9"/>
	<line class="st9" x1="511.5" y1="382.1" x2="1025.1" y2="382.1"/>
</g>
<g id="WAT9S">
	<rect id="neck" x="1202.7" y="809.3" class="st10" width="145.6" height="91.9"/>
	<g id="head">
		<circle id="_head" class="st10" cx="1276.8" cy="548.8" r="283.7"/>
		<g id="eyes">
			<g id="left_eye">
				<g id="left_dead_eye">
					<line id="ldy2" class="st11" x1="1097.4" y1="420.9" x2="1209.4" y2="532.8"/>
					<line id="ldy1" class="st11" x1="1209.4" y1="420.9" x2="1097.4" y2="532.8"/>
				</g>
				<circle id="left_eyeball" class="st12" cx="1153.4" cy="476.9" r="79.6"/>
				<circle id="left_pupil" class="st13" cx="1153.4" cy="476.9" r="29.1"/>
			</g>
			<g id="right_eye">
				<g id="right_dead_eye">
					<line id="ldy2-2" class="st11" x1="1335.9" y1="416.8" x2="1447.9" y2="528.7"/>
					<line id="ldy1-2" class="st11" x1="1447.9" y1="416.8" x2="1335.9" y2="528.7"/>
				</g>
				<circle id="right_eyeball" class="st12" cx="1391.9" cy="472.8" r="79.6"/>
				<circle id="right_pupil" class="st13" cx="1391.9" cy="472.8" r="29.1"/>
			</g>
		</g>
		<g id="antennas">
			<polyline id="electric_current" class="st14" points="1031.3,169 1113.2,98 1194.4,168.4 1275.4,98.2 1356.1,168.3 1436.8,98.3 
				1519.7,170.2 			"/>
			
				<rect id="right_antenna" x="1369.8" y="214.9" transform="matrix(0.5 -0.866 0.866 0.5 530.8452 1405.4757)" class="st10" width="225.7" height="56.2"/>
			
				<rect id="left_antenna" x="1045.7" y="130.2" transform="matrix(0.866 -0.5 0.5 0.866 22.3576 569.4598)" class="st10" width="56.2" height="225.7"/>
		</g>
		<path id="happy_mouth" class="st15" d="M1150.4,670.7c0,35.6,53.4,64.5,119.2,64.5s119.2-28.9,119.2-64.5H1150.4z"/>
		<line id="mouth" class="st16" x1="1153.4" y1="678.6" x2="1391.9" y2="678.6"/>
	</g>
	<rect id="body" x="930.5" y="868.5" class="st10" width="684.3" height="467.7"/>
	<g id="left_arm_group">
		<circle id="right_shoulder_00000137123861571602729140000006942797329609787550_" class="st10" cx="838.3" cy="889" r="64.3"/>
		<rect id="left_arm" x="812.9" y="868.5" class="st10" width="50.8" height="385.6"/>
		<g id="left_hand_group">
			<polygon id="left_spikes" class="st15" points="706.3,1298.2 808.9,1270.6 726.8,1210.1 829.3,1254.2 829.3,1175.9 853.6,1257.5 
				931.8,1199.6 892.8,1265.4 948.3,1262.7 856.2,1286.4 931.8,1325.9 843.1,1310.1 829.3,1367.9 811.5,1298.2 			"/>
			<circle id="left_hand" class="st10" cx="838.3" cy="1271.9" r="64.3"/>
		</g>
	</g>
	<g id="right_arm_group">
		<g id="right_hand_group">
			<polygon id="right_spikes" class="st15" points="1680.7,1142.9 1708.3,1245.4 1768.8,1163.4 1724.8,1265.9 1803,1265.9 
				1721.5,1290.1 1779.3,1368.4 1713.6,1329.4 1716.2,1384.8 1692.6,1292.8 1653.1,1368.4 1668.9,1279.6 1611,1265.9 1680.7,1248.1 
							"/>
			<circle id="right_hand" class="st10" cx="1707" cy="1271.9" r="64.3"/>
		</g>
		<circle id="right_shoulder" class="st10" cx="1707" cy="889" r="64.3"/>
		<rect id="right_arm" x="1681.6" y="868.5" class="st10" width="50.8" height="385.6"/>
	</g>
	<rect id="arms_conector" x="851.6" y="889" class="st10" width="845.6" height="12.3"/>
	<g id="wheel">
		<polyline class="st17" points="1276.8,1396.8 1276.8,1664.1 1465.7,1475.2 		"/>
		<polyline class="st17" points="1544.1,1664.1 1276.8,1664.1 1465.7,1853 		"/>
		<g>
			<circle class="st17" cx="1276.8" cy="1664.1" r="267.3"/>
			<path class="st17" d="M1276.8,1931.4v-267.3l-185.3,185.3"/>
			<polyline class="st17" points="1009.5,1664.1 1276.8,1664.1 1087.8,1475.1 			"/>
		</g>
	</g>
	<g id="wheel_cover" class="st18">
		<path class="st19" d="M1276.8,1367.9c-161,0-296.5,109.7-335.7,258.4h671.4C1573.3,1477.6,1437.8,1367.9,1276.8,1367.9z"/>
	</g>
	<g id="clothes">
		<polygon id="tuxedo" class="st20" points="1614.8,1301.6 930.5,1301.6 930.5,895.1 1153.4,895.1 1401,895.1 1614.8,895.1 		"/>
		<polygon id="undershirt" class="st21" points="1153.4,895.1 1272.7,1107.5 1391.9,895.1 		"/>
		<polygon id="badge" class="st22" points="1458.3,1113.6 1433.9,1071.5 1458.3,1029.3 1506.9,1029.3 1531.3,1071.5 1506.9,1113.6 
					"/>
	</g>
	<rect id="wheel_conector" x="1202.9" y="1336.3" class="st10" width="139.5" height="48.6"/>
</g>
</svg>
